<?xml version="1.0" standalone="no"?>
<!DOCTYPE svg PUBLIC "-//W3C//DTD SVG 1.1//EN" "http://www.w3.org/Graphics/SVG/1.1/DTD/svg11.dtd" >
<svg xmlns="http://www.w3.org/2000/svg">
<metadata>Generated by IcoMoon</metadata>
<defs>
<font id="ew" horiz-adv-x="1024">
<font-face units-per-em="1024" ascent="960" descent="-64" />
<missing-glyph horiz-adv-x="1024" />
<glyph unicode="&#x20;" horiz-adv-x="512" d="" />
<glyph unicode="&#xe600;" glyph-name="uniE600" d="M304.392 327.096l86.704-86.674-29.662-29.662h-31.938v54.736h-54.736v31.938zM540.522 549.536c5.322-4.95 4.75-10.658-1.716-17.124l-165.956-165.956c-6.466-6.466-12.174-7.038-17.122-1.716-5.322 4.948-4.75 10.656 1.714 17.124l165.956 165.956c6.466 6.466 12.174 7.038 17.124 1.716zM384.236 156.026l310.266 310.236-164.24 164.24-310.266-310.236v-164.24zM730.992 502.752l52.46 52.49c10.644 10.644 15.968 23.568 15.97 38.768 0 15.2-5.324 28.12-15.97 38.768l-86.674 86.704c-10.646 10.646-23.574 15.968-38.784 15.97s-28.138-5.324-38.784-15.97l-52.46-52.46zM950 721.76v-547.488c0-45.246-16.062-83.934-48.188-116.068s-70.81-48.202-116.054-48.202h-547.52c-45.246 0-83.93 16.068-116.054 48.202s-48.186 70.826-48.186 116.068v547.488c0 45.244 16.062 83.928 48.186 116.054s70.808 48.186 116.054 48.188h547.52c45.244 0 83.928-16.062 116.054-48.188s48.186-70.81 48.188-116.054z" />
<glyph unicode="&#xe601;" glyph-name="uniE601" d="M842.012 370.52c-13.648 13.446-43.914 20.566-89.972 21.172-31.178 0.344-68.702-2.402-108.17-7.928-17.674 10.198-35.892 21.294-50.188 34.658-38.462 35.916-70.568 85.772-90.576 140.594 1.304 5.12 2.414 9.62 3.448 14.212 0 0 21.666 123.060 15.93 164.666-0.79 5.706-1.274 7.362-2.808 11.796l-1.882 4.834c-5.896 13.592-17.448 27.994-35.566 27.208l-10.916 0.344c-20.2 0-36.664-10.332-40.986-25.774-13.138-48.434 0.418-120.892 24.982-214.738l-6.288-15.286c-17.588-42.876-39.63-86.060-59.078-124.158l-2.528-4.952c-20.46-40.038-39.024-74.026-55.854-102.822l-17.376-9.188c-1.264-0.668-31.044-16.418-38.028-20.644-59.256-35.382-98.522-75.54-105.036-107.416-2.072-10.17-0.53-23.186 10.014-29.214l16.806-8.458c7.29-3.652 14.978-5.502 22.854-5.502 42.204 0 91.2 52.572 158.696 170.366 77.93 25.368 166.654 46.456 244.414 58.090 59.258-33.368 132.142-56.546 178.142-56.546 8.168 0 15.212 0.778 20.932 2.296 8.822 2.336 16.258 7.366 20.792 14.192 8.926 13.432 10.734 31.932 8.312 50.876-0.722 5.624-5.212 12.576-10.070 17.322zM211.646 145.952c7.696 21.042 38.16 62.644 83.204 99.556 2.832 2.296 9.808 8.832 16.194 14.902-47.102-75.124-78.646-105.066-99.398-114.458zM478.434 760.314c13.566 0 21.284-34.194 21.924-66.254s-6.858-54.56-16.158-71.208c-7.702 24.648-11.426 63.5-11.426 88.904 0 0-0.566 48.558 5.66 48.558zM398.852 322.506c9.45 16.916 19.282 34.756 29.33 53.678 24.492 46.316 39.958 82.556 51.478 112.346 22.91-41.684 51.444-77.12 84.986-105.512 4.184-3.542 8.618-7.102 13.274-10.65-68.21-13.496-127.164-29.91-179.068-49.862zM828.904 326.348c-4.154-2.598-16.054-4.1-23.708-4.1-24.706 0-55.272 11.294-98.126 29.666 16.468 1.218 31.562 1.838 45.1 1.838 24.782 0 32.12 0.108 56.35-6.072s24.538-18.734 20.384-21.332zM903.432 760.57l-142.864 142.862c-31.112 31.112-92.568 56.568-136.568 56.568h-480c-44 0-80-36-80-80v-864c0-44 36-80 80-80h736c44 0 80 36 80 80v608c0 44-25.456 105.458-56.568 136.57zM858.178 715.314c3.13-3.13 6.25-6.974 9.28-11.314h-163.458v163.456c4.34-3.030 8.184-6.15 11.314-9.28l142.864-142.862zM896 16c0-8.672-7.328-16-16-16h-736c-8.672 0-16 7.328-16 16v864c0 8.672 7.328 16 16 16h480c4.832 0 10.254-0.61 16-1.704v-254.296h254.296c1.094-5.746 1.704-11.166 1.704-16v-608z" />
<glyph unicode="&#xe602;" glyph-name="uniE602" d="M639.778 484.108h44.212l-51.012-226.178-66.326 318.010h-106.55l-77.114-318.010-57.816 318.010h-111.394l113.092-511.882h108.838l76.294 302.708 68.256-302.708h100.336l129.63 511.882h-170.446zM903.432 760.57l-142.864 142.862c-31.112 31.112-92.568 56.568-136.568 56.568h-480c-44 0-80-36-80-80v-864c0-44 36-80 80-80h736c44 0 80 36 80 80v608c0 44-25.456 105.458-56.568 136.57zM858.178 715.314c3.13-3.13 6.25-6.974 9.28-11.314h-163.458v163.456c4.34-3.030 8.184-6.15 11.314-9.28l142.864-142.862zM896 16c0-8.672-7.328-16-16-16h-736c-8.672 0-16 7.328-16 16v864c0 8.672 7.328 16 16 16h480c4.832 0 10.254-0.61 16-1.704v-254.296h254.296c1.094-5.746 1.704-11.166 1.704-16v-608z" />
<glyph unicode="&#xe603;" glyph-name="uniE603" d="M743.028 576h-135.294l-95.732-141.032-95.74 141.032h-135.288l162.162-242.464-182.974-269.536h262.24v91.576h-60.556l50.156 74.994 111.396-166.57h140.442l-182.976 269.536zM903.432 760.57l-142.864 142.862c-31.112 31.112-92.568 56.568-136.568 56.568h-480c-44 0-80-36-80-80v-864c0-44 36-80 80-80h736c44 0 80 36 80 80v608c0 44-25.456 105.458-56.568 136.57zM858.178 715.314c3.13-3.13 6.25-6.974 9.28-11.314h-163.458v163.456c4.34-3.030 8.184-6.15 11.314-9.28l142.864-142.862zM896 16c0-8.672-7.328-16-16-16h-736c-8.672 0-16 7.328-16 16v864c0 8.672 7.328 16 16 16h480c4.832 0 10.254-0.61 16-1.704v-254.296h254.296c1.094-5.746 1.704-11.166 1.704-16v-608z" />
<glyph unicode="&#xe604;" glyph-name="uniE604" d="M448 384l-64 64-192-192 192-192 64 64-128 128zM576 128l64-64 192 192-192 192-64-64 128-128zM903.432 760.57l-142.864 142.862c-31.112 31.112-92.568 56.568-136.568 56.568h-480c-44 0-80-36-80-80v-864c0-44 36-80 80-80h736c44 0 80 36 80 80v608c0 44-25.456 105.458-56.568 136.57zM858.178 715.314c3.13-3.13 6.25-6.974 9.28-11.314h-163.458v163.456c4.34-3.030 8.184-6.15 11.314-9.28l142.864-142.862zM896 16c0-8.672-7.328-16-16-16h-736c-8.672 0-16 7.328-16 16v864c0 8.672 7.328 16 16 16h480c4.832 0 10.254-0.61 16-1.704v-254.296h254.296c1.094-5.746 1.704-11.166 1.704-16v-608z" />
<glyph unicode="&#xe605;" glyph-name="uniE605" d="M282.858 154.364l52.858 52.858-136.496 136.496-52.858-52.858v-62.134h74.33v-74.362zM586.634 693.392c0 8.512-4.256 12.77-12.77 12.77-3.876 0-7.168-1.356-9.88-4.066l-314.828-314.796c-2.712-2.712-4.066-6.004-4.066-9.88 0-8.534 4.256-12.802 12.77-12.802 3.876 0 7.168 1.356 9.88 4.066l314.828 314.828c2.71 2.71 4.066 6.002 4.066 9.88zM555.28 804.922l241.64-241.64-483.28-483.28h-241.64v241.64zM952 749.172c0-20.542-7.168-37.972-21.504-52.286l-96.408-96.44-241.64 241.64 96.408 95.836c13.956 14.716 31.384 22.076 52.286 22.076 20.52-0.002 38.14-7.36 52.858-22.076l136.496-135.894c14.336-15.12 21.504-32.74 21.504-52.858zM0 16h1024v-80h-1024z" />
<glyph unicode="&#xe606;" glyph-name="uniE606" d="M904.87 771.422c13.086-0.002 24.214-4.584 33.38-13.75s13.75-20.294 13.75-33.382v-597.158c0-13.086-4.584-24.216-13.75-33.38s-20.294-13.75-33.38-13.75h-471.448c-13.088 0-24.214 4.582-33.38 13.75s-13.75 20.294-13.75 33.38v141.448h-267.158c-13.088 0-24.216 4.582-33.382 13.75s-13.75 20.294-13.75 33.38v330c0 13.086 3.272 27.49 9.816 43.21s14.4 28.162 23.566 37.33l200.368 200.342c9.166 9.166 21.606 17.026 37.316 23.58s30.118 9.828 43.224 9.828h204.29c13.086 0 24.214-4.584 33.38-13.75s13.75-20.302 13.75-33.408v-161.052c22.272 13.086 43.228 19.63 62.87 19.63zM637.71 666.818l-146.818-146.818h146.818zM323.42 855.398l-146.818-146.82h146.818zM419.67 537.672l155.198 155.17v204.29h-188.58v-204.29c0-13.088-4.584-24.216-13.75-33.38s-20.302-13.75-33.408-13.75h-204.264v-314.29h251.42v125.71c0 13.106 3.272 27.512 9.816 43.224s14.4 28.15 23.566 37.316zM889.13 142.842v565.736h-188.552v-204.29c0-13.106-4.584-24.242-13.75-33.408s-20.302-13.75-33.408-13.75h-204.29v-314.29zM0 16h1024v-80h-1024z" />
<glyph unicode="&#xe607;" glyph-name="uniE607" d="M716.8 225.28c-50.534 0-94.004-30.618-112.846-74.24h-168.754c-72.294 0-79.052 61.030-79.36 79.36v198.042c22.068-10.188 48.282-16.282 79.36-16.282h168.754c18.842-43.674 62.31-74.24 112.846-74.24 67.84 0 122.88 55.040 122.88 122.88s-55.040 122.88-122.88 122.88c-50.534 0-94.004-30.618-112.846-74.24h-168.754c-72.294 0-79.052 61.030-79.36 79.36v117.556c43.674 18.842 74.188 62.31 74.188 112.846 0 67.84-54.988 122.88-122.83 122.88s-122.88-55.040-122.88-122.88c0-50.534 30.618-93.952 74.24-112.846v-475.956c0-71.014 47.052-176.64 176.64-176.64h168.756c18.842-43.674 62.31-74.24 112.846-74.24 67.84 0 122.88 54.99 122.88 122.88 0 67.84-55.040 122.88-122.88 122.88zM716.8 531.712c39.168 0 70.912-31.744 70.912-70.912s-31.744-70.912-70.912-70.912-70.912 31.744-70.912 70.912 31.744 70.912 70.912 70.912zM236.288 819.2c0 39.168 31.744 70.912 70.912 70.912s70.912-31.744 70.912-70.912-31.744-70.912-70.912-70.912-70.912 31.744-70.912 70.912zM716.8 31.488c-39.168 0-70.912 31.744-70.912 70.912s31.744 70.912 70.912 70.912 70.912-31.744 70.912-70.912-31.744-70.912-70.912-70.912z" />
<glyph unicode="&#xe608;" glyph-name="uniE608" d="M121.46 253.356c-80.974 80.994-121.46 178.524-121.46 292.592s40.492 211.592 121.476 292.576c80.984 80.984 178.51 121.476 292.576 121.476s211.592-40.494 292.576-121.476c80.984-80.986 121.476-178.504 121.476-292.56 0-80.994-22.244-155.43-66.73-223.308l256.642-256.642c3.988-4.552 5.982-9.682 5.984-15.382s-1.996-10.84-5.984-15.414l-93.234-93.234c-4.576-3.99-9.712-5.984-15.414-5.984s-10.83 1.996-15.382 5.984l-256.642 256.642c-67.88-44.486-142.314-66.73-223.308-66.73-114.058 0-211.582 40.486-292.576 121.46zM213.848 745.274c-55.306-55.326-82.958-121.77-82.958-199.326s27.658-144 82.972-199.326c55.314-55.326 122.038-82.99 200.174-82.99s144.722 27.522 199.766 82.566c55.044 55.044 82.564 121.632 82.566 199.766 0 78.132-27.524 144.716-82.566 199.75s-121.632 82.548-199.766 82.55c-78.132 0-144.862-27.664-200.188-82.988zM592.766 388h-75.468l-30 78.048h-137.344l-28.358-78.048h-73.594l133.828 343.594h73.358zM465.032 523.938l-47.344 127.5-46.406-127.5z" />
<glyph unicode="&#xe609;" glyph-name="uniE609" d="M340.564 262.564v-85.718c0-11.898-4.166-22.014-12.5-30.346s-18.45-12.5-30.346-12.5h-142.872c-11.898 0-22.014 4.168-30.348 12.5s-12.5 18.448-12.5 30.346v85.718c0 11.914 4.168 22.038 12.5 30.37s18.45 12.5 30.348 12.5h142.872c11.898 0 22.012-4.168 30.346-12.5s12.5-18.456 12.5-30.37zM340.564 491.154v-85.718c0-11.914-4.166-22.038-12.5-30.37s-18.45-12.5-30.346-12.5h-142.872c-11.898 0-22.014 4.166-30.348 12.5s-12.5 18.456-12.5 30.37v85.718c0 11.896 4.168 22.012 12.5 30.346s18.45 12.5 30.348 12.5h142.872c11.898 0 22.012-4.166 30.346-12.5s12.5-18.448 12.5-30.346zM626.282 262.564v-85.718c0-11.898-4.168-22.014-12.5-30.346s-18.448-12.5-30.346-12.5h-142.87c-11.898 0-22.014 4.168-30.346 12.5s-12.5 18.448-12.5 30.346v85.718c0 11.914 4.166 22.038 12.5 30.37s18.45 12.5 30.346 12.5h142.87c11.898 0 22.014-4.168 30.346-12.5s12.5-18.456 12.5-30.37zM340.564 719.718v-85.718c0-11.898-4.166-22.014-12.5-30.346s-18.45-12.5-30.346-12.5h-142.872c-11.898 0-22.014 4.166-30.348 12.5s-12.5 18.448-12.5 30.346v85.718c0 11.896 4.168 22.012 12.5 30.346s18.45 12.5 30.348 12.5h142.872c11.898 0 22.012-4.168 30.346-12.5s12.5-18.45 12.5-30.346zM626.282 491.154v-85.718c0-11.914-4.168-22.038-12.5-30.37s-18.448-12.5-30.346-12.5h-142.87c-11.898 0-22.014 4.166-30.346 12.5s-12.5 18.456-12.5 30.37v85.718c0 11.896 4.166 22.012 12.5 30.346s18.45 12.5 30.346 12.5h142.87c11.898 0 22.014-4.166 30.346-12.5s12.5-18.448 12.5-30.346zM912 262.564v-85.718c0-11.898-4.168-22.014-12.5-30.346s-18.45-12.5-30.346-12.5h-142.87c-11.898 0-22.014 4.168-30.346 12.5s-12.5 18.448-12.5 30.346v85.718c0 11.914 4.166 22.038 12.5 30.37s18.448 12.5 30.346 12.5h142.87c11.898 0 22.014-4.168 30.346-12.5s12.5-18.456 12.5-30.37zM626.282 719.718v-85.718c0-11.898-4.168-22.014-12.5-30.346s-18.448-12.5-30.346-12.5h-142.87c-11.898 0-22.014 4.166-30.346 12.5s-12.5 18.448-12.5 30.346v85.718c0 11.896 4.166 22.012 12.5 30.346s18.45 12.5 30.346 12.5h142.87c11.898 0 22.014-4.168 30.346-12.5s12.5-18.45 12.5-30.346zM912 491.154v-85.718c0-11.914-4.168-22.038-12.5-30.37s-18.45-12.5-30.346-12.5h-142.87c-11.898 0-22.014 4.166-30.346 12.5s-12.5 18.456-12.5 30.37v85.718c0 11.896 4.166 22.012 12.5 30.346s18.448 12.5 30.346 12.5h142.87c11.898 0 22.014-4.166 30.346-12.5s12.5-18.448 12.5-30.346zM912 719.718v-85.718c0-11.898-4.168-22.014-12.5-30.346s-18.45-12.5-30.346-12.5h-142.87c-11.898 0-22.014 4.166-30.346 12.5s-12.5 18.448-12.5 30.346v85.718c0 11.896 4.166 22.012 12.5 30.346s18.448 12.5 30.346 12.5h142.87c11.898 0 22.014-4.168 30.346-12.5s12.5-18.45 12.5-30.346z" />
<glyph unicode="&#xe60a;" glyph-name="uniE60A" d="M743.424 959.956c-35.818 0-71.662-13.574-98.938-40.812l-510.688-510.938c-39.824-39.75-50.408-97.53-32.126-147.126l-101.126-289.376c-4.59-14.434 20.618-39.628 35.126-35.188l289.938 100.876c49.372-17.914 106.974-7.090 146.5 32.438l510.876 510.876c54.478 54.48 54.478 143.208 0 197.688l-140.688 140.75c-27.24 27.24-63.058 40.812-98.876 40.812zM713.488 827.394c15.74-0.61 31.716-7.252 44.188-19.688l113.812-113.812c24.946-25.020 26.47-64.042 3.376-87.064l-382.062-382.126c-23.094-23.094-62.044-21.582-87.062 3.438l-113.75 113.75c-24.87 24.946-26.394 63.968-3.376 87.062l382.126 382.126c11.548 11.548 27.010 16.924 42.75 16.312zM593.794 116l-169.794-180h600v180h-430.204z" />
<glyph unicode="&#xe60b;" glyph-name="uniE60B" d="M121.46 253.356c-80.974 80.994-121.46 178.524-121.46 292.592s40.492 211.592 121.476 292.576c80.984 80.984 178.51 121.476 292.576 121.476s211.592-40.494 292.576-121.476c80.984-80.986 121.476-178.504 121.476-292.56 0-80.994-22.244-155.43-66.73-223.308l256.642-256.642c3.988-4.552 5.982-9.682 5.984-15.382s-1.996-10.84-5.984-15.414l-93.234-93.234c-4.576-3.99-9.712-5.984-15.414-5.984s-10.83 1.996-15.382 5.984l-256.642 256.642c-67.88-44.486-142.314-66.73-223.308-66.73-114.058 0-211.582 40.486-292.576 121.46zM213.848 745.274c-55.306-55.326-82.958-121.77-82.958-199.326s27.658-144 82.972-199.326c55.314-55.326 122.038-82.99 200.174-82.99s144.722 27.522 199.766 82.566c55.044 55.044 82.564 121.632 82.566 199.766 0 78.132-27.524 144.716-82.566 199.75s-121.632 82.548-199.766 82.55c-78.132 0-144.862-27.664-200.188-82.988zM393.758 656.426l-39.412-104.338c11.276-0.162 23.138-0.318 35.582-0.47s21.642-0.27 27.594-0.348c5.952-0.080 10.010-0.12 12.174-0.12l6.734 0.468c-4.946 14.684-12.060 33.314-21.342 55.884-8.192 20.408-15.302 36.716-21.33 48.924zM230.514 400.194h-4.868l0.468 18.324c3.398 1.082 9.578 2.472 18.54 4.172 13.762 2.476 22.268 4.874 25.514 7.19 3.094 2.476 6.806 7.73 11.134 15.762l54.948 142.838 64.928 167.884h29.686l2.548-4.87 47.54-111.302c15.918-37.408 25.5-60.366 28.748-68.87 6.026-15.768 13.446-33.93 22.256-54.49 4.024-8.962 9.050-21.638 15.078-38.030 3.712-10.356 8.736-21.87 15.078-34.544 3.398-7.576 6.102-11.984 8.116-13.226 3.398-2.934 8.728-4.708 15.99-5.326 7.27-0.93 15.234-3.018 23.89-6.264 0.922-6.028 1.382-10.432 1.382-13.214 0-2.164-0.076-4.176-0.228-6.036-12.37 0-27.21 0.62-44.524 1.864-14.372 1.234-28.98 1.85-43.826 1.85-12.208 0-22.64-0.156-31.298-0.47l-46.374-2.548-13.454-0.456c0 6.958 0.308 12.986 0.926 18.082l30.384 6.494c8.656 2.012 13.912 3.792 15.762 5.34 1.85 1.85 2.776 3.938 2.776 6.258s-0.462 4.792-1.382 7.412l-10.906 26.44-21.33 52.868-104.352 0.468c-4.48-10.052-12.516-31.232-24.106-63.544-3.56-9.892-5.338-16.384-5.338-19.478 0-4.784 1.314-8.106 3.944-9.966 4.016-3.246 11.976-5.72 23.878-7.418 0.464 0 1.51-0.154 3.132-0.462s3.942-0.696 6.956-1.16c3.014-0.466 6.144-0.93 9.39-1.394 0.162-4.328 0.24-8.808 0.24-13.442 0-2.63-0.156-4.716-0.468-6.264-10.204 0-37.18 1.548-80.93 4.64l-11.12-1.864c-12.52-2.164-25.43-3.246-38.728-3.246z" />
<glyph unicode="&#xe60c;" glyph-name="uniE60C" d="M238.25 886c-45.246 0-83.938-16.064-116.062-48.188s-48.186-70.82-48.186-116.062v-547.5c0-45.246 16.064-83.928 48.186-116.062s70.818-48.188 116.062-48.188h547.5c45.244 0 83.938 16.052 116.062 48.188s48.188 70.818 48.188 116.062v547.5c0 45.244-16.064 83.938-48.188 116.062s-70.818 48.188-116.062 48.188h-547.5zM396 754h161.5c7.912 0 14.646-2.77 20.188-8.312s8.312-12.276 8.312-20.188v-82.75c-3.11 0.192-6.24 0.024-9.312-0.5-22.598-4.13-44.278-14.154-60.626-30.5l-92.626-92.626c-16.3-16.302-26.418-37.954-30.562-60.626 0.196-0.312 0.452-0.656 0.688-1.126-3.384-6.038-2.19-37.266-2.188-44.188v-115.188h-156.876c-7.922 0-14.646 2.77-20.188 8.312s-8.312 12.264-8.312 20.188v237.5h161.5c7.912 0 14.646 2.77 20.188 8.312s8.312 12.264 8.312 20.188v161.5zM358 753.126v-151.126h-151.126c2.966 16.224 9.408 29.284 19.312 39.188l92.626 92.626c9.894 9.892 22.952 16.346 39.188 19.312zM627 598h161.5c7.912 0 14.646-2.77 20.188-8.312s8.312-12.276 8.312-20.188v-399c0-7.924-2.77-14.646-8.312-20.188s-12.276-8.312-20.188-8.312h-323c-7.922 0-14.646 2.77-20.188 8.312s-8.312 12.264-8.312 20.188v237.5h161.5c7.912 0 14.646 2.77 20.188 8.312s8.312 12.264 8.312 20.188v161.5zM589 597.062v-151.062h-151.126c2.966 16.224 9.408 29.284 19.312 39.188l92.626 92.626c9.894 9.892 22.952 16.284 39.188 19.25z" />
<glyph unicode="&#xe60d;" glyph-name="uniE60D" d="M121.46 253.356c-80.974 80.994-121.46 178.524-121.46 292.592s40.492 211.592 121.476 292.576c80.984 80.984 178.51 121.476 292.576 121.476s211.592-40.494 292.576-121.476c80.984-80.986 121.476-178.504 121.476-292.56 0-80.994-22.244-155.43-66.73-223.308l256.642-256.642c3.988-4.552 5.982-9.682 5.984-15.382s-1.996-10.84-5.984-15.414l-93.234-93.234c-4.576-3.99-9.712-5.984-15.414-5.984s-10.83 1.996-15.382 5.984l-256.642 256.642c-67.88-44.486-142.314-66.73-223.308-66.73-114.058 0-211.582 40.486-292.576 121.46zM213.848 745.274c-55.306-55.326-82.958-121.77-82.958-199.326s27.658-144 82.972-199.326c55.314-55.326 122.038-82.99 200.174-82.99s144.722 27.522 199.766 82.566c55.044 55.044 82.564 121.632 82.566 199.766 0 78.132-27.524 144.716-82.566 199.75s-121.632 82.548-199.766 82.55c-78.132 0-144.862-27.664-200.188-82.988zM302.302 724c-8.082 0-14.932-2.828-20.588-8.486l-41.232-41.182c-5.656-5.658-8.484-12.572-8.484-20.648s2.828-14.934 8.484-20.59l89.080-89.096-89.082-89.096c-5.656-5.656-8.484-12.51-8.484-20.592s2.828-14.934 8.484-20.592l41.232-41.238c5.656-5.658 12.508-8.486 20.588-8.486s14.932 2.828 20.588 8.486l89.082 89.096 89.082-89.096c5.656-5.658 12.562-8.486 20.644-8.486s14.932 2.828 20.588 8.486l41.232 41.238c5.656 5.658 8.482 12.51 8.484 20.592s-2.828 14.934-8.484 20.592l-89.082 89.096 89.082 89.096c5.656 5.656 8.482 12.514 8.484 20.592s-2.828 14.99-8.484 20.648l-41.232 41.182c-5.656 5.656-12.506 8.484-20.588 8.484s-14.988-2.828-20.644-8.484l-89.082-89.096-89.082 89.096c-5.656 5.656-12.508 8.484-20.588 8.484z" />
<glyph unicode="&#xe60e;" glyph-name="uniE60E" d="M903.432 760.57l-142.864 142.862c-31.112 31.112-92.568 56.568-136.568 56.568h-480c-44 0-80-36-80-80v-864c0-44 36-80 80-80h736c44 0 80 36 80 80v608c0 44-25.456 105.458-56.568 136.57zM858.178 715.314c3.13-3.13 6.25-6.974 9.28-11.314h-163.458v163.456c4.34-3.030 8.184-6.15 11.314-9.28l142.864-142.862zM896 16c0-8.672-7.328-16-16-16h-736c-8.672 0-16 7.328-16 16v864c0 8.672 7.328 16 16 16h480c4.832 0 10.254-0.61 16-1.704v-254.296h254.296c1.094-5.746 1.704-11.166 1.704-16v-608zM395.846 479.552c2.58-2.582 3.87-5.546 3.87-8.894s-1.29-6.312-3.87-8.894l-151.974-151.974 151.974-151.996c2.58-2.58 3.87-5.544 3.87-8.894s-1.29-6.312-3.87-8.894l-19.33-19.33c-2.58-2.58-5.546-3.87-8.892-3.87s-6.312 1.29-8.894 3.87l-180.208 180.208c-2.58 2.58-3.87 5.544-3.87 8.894s1.29 6.312 3.87 8.894l180.208 180.208c2.58 2.58 5.544 3.87 8.894 3.87s6.312-1.29 8.894-3.87l19.33-19.33zM850.082 318.674c2.58-2.58 3.87-5.544 3.87-8.894s-1.29-6.312-3.87-8.894l-180.208-180.208c-2.58-2.58-5.544-3.87-8.894-3.87s-6.312 1.29-8.894 3.87l-19.33 19.33c-2.58 2.58-3.87 5.544-3.87 8.894s1.29 6.312 3.87 8.894l151.974 151.996-151.974 151.974c-2.58 2.58-3.87 5.544-3.87 8.892s1.29 6.312 3.87 8.894l19.33 19.33c2.58 2.58 5.544 3.87 8.894 3.87s6.312-1.29 8.894-3.87l180.208-180.208zM452.754 422c18.658 10.89 39.032 16.336 61.12 16.336s42.462-5.444 61.116-16.332c18.654-10.888 33.428-25.658 44.314-44.31s16.33-39.024 16.332-61.116c0-22.092-5.444-42.466-16.332-61.12s-25.658-33.428-44.314-44.314c-18.656-10.886-39.028-16.33-61.116-16.332s-42.462 5.444-61.118 16.332c-18.656 10.886-33.428 25.658-44.314 44.314s-16.33 39.028-16.33 61.12c0 22.092 5.442 42.464 16.33 61.116s25.656 33.422 44.31 44.304zM557.318 355.732c-0.214-0.104-0.716-0.606-1.51-1.504s-1.506-1.4-2.142-1.504c0.214 0 0.452 0.264 0.716 0.794s0.528 1.11 0.794 1.744c0.266 0.634 0.452 1.004 0.554 1.114 0.636 0.74 1.798 1.532 3.486 2.376 1.48 0.636 4.228 1.27 8.246 1.9 3.596 0.85 6.292 0.27 8.090-1.744-0.214 0.214 0.288 0.902 1.504 2.064s1.98 1.794 2.294 1.9c0.318 0.214 1.11 0.452 2.38 0.716s2.062 0.66 2.38 1.192l0.322 3.486c-1.272-0.104-2.198 0.266-2.778 1.11s-0.924 1.954-1.028 3.328c0-0.214-0.318-0.636-0.954-1.266 0 0.74-0.24 1.162-0.716 1.266s-1.086 0.050-1.826-0.16c-0.74-0.212-1.214-0.264-1.422-0.16-1.058 0.318-1.85 0.716-2.38 1.192s-0.952 1.35-1.27 2.618c-0.318 1.27-0.528 2.062-0.634 2.38-0.208 0.526-0.71 1.078-1.504 1.66s-1.296 1.136-1.504 1.668c-0.11 0.208-0.244 0.496-0.4 0.866s-0.314 0.714-0.472 1.032c-0.158 0.318-0.372 0.608-0.636 0.87s-0.558 0.394-0.87 0.394c-0.316 0-0.684-0.264-1.11-0.794s-0.822-1.056-1.192-1.582c-0.37-0.526-0.606-0.788-0.712-0.788-0.318 0.208-0.636 0.286-0.954 0.234s-0.554-0.104-0.712-0.156c-0.156-0.052-0.394-0.212-0.712-0.476s-0.584-0.452-0.798-0.554c-0.318-0.214-0.768-0.374-1.348-0.476s-1.030-0.212-1.348-0.322c1.59 0.532 1.538 1.116-0.156 1.75-1.058 0.422-1.902 0.578-2.532 0.468 0.948 0.428 1.342 1.062 1.182 1.908s-0.61 1.584-1.348 2.22h0.798c-0.11 0.422-0.562 0.87-1.352 1.348s-1.716 0.926-2.774 1.348c-1.058 0.422-1.744 0.736-2.054 0.946-0.85 0.532-2.65 1.034-5.398 1.51s-4.494 0.5-5.232 0.078c-0.526-0.63-0.764-1.184-0.712-1.66s0.264-1.216 0.634-2.22c0.37-1.004 0.554-1.664 0.554-1.98 0.11-0.636-0.178-1.324-0.866-2.064s-1.032-1.374-1.032-1.9c0-0.74 0.74-1.558 2.22-2.458s2.008-2.036 1.586-3.412c-0.318-0.844-1.164-1.688-2.54-2.536s-2.22-1.48-2.532-1.904c-0.532-0.844-0.614-1.822-0.244-2.932s0.924-1.982 1.664-2.618c0.214-0.214 0.294-0.426 0.238-0.636s-0.24-0.448-0.554-0.712c-0.316-0.264-0.606-0.474-0.87-0.634s-0.61-0.346-1.032-0.558l-0.476-0.312c-1.162-0.532-2.244-0.216-3.246 0.948s-1.716 2.538-2.136 4.124c-0.74 2.64-1.586 4.228-2.54 4.76-2.434 0.844-3.966 0.788-4.596-0.164-0.532 1.376-2.698 2.75-6.504 4.126-2.642 0.948-5.708 1.158-9.2 0.634 0.636 0.104 0.636 0.896 0 2.376-0.74 1.584-1.742 2.22-3.010 1.908 0.318 0.63 0.528 1.552 0.632 2.77s0.156 1.928 0.156 2.136c0.318 1.376 0.954 2.592 1.906 3.65 0.104 0.104 0.474 0.552 1.11 1.348s1.14 1.508 1.51 2.142c0.37 0.634 0.396 0.948 0.078 0.948 3.698-0.422 6.342 0.158 7.924 1.744 0.526 0.532 1.134 1.43 1.822 2.696s1.244 2.164 1.664 2.696c0.954 0.636 1.696 0.926 2.224 0.87s1.294-0.346 2.298-0.876c1.004-0.528 1.77-0.794 2.302-0.794 1.48-0.104 2.298 0.478 2.454 1.746s-0.24 2.326-1.188 3.168c1.266-0.104 1.424 0.794 0.476 2.696-0.532 0.74-0.956 1.216-1.274 1.432-1.266 0.422-2.692 0.156-4.274-0.798-0.85-0.422-0.746-0.844 0.312-1.266-0.104 0.104-0.606-0.452-1.504-1.664s-1.77-2.14-2.614-2.774c-0.844-0.636-1.692-0.374-2.54 0.788-0.104 0.11-0.394 0.826-0.87 2.146s-0.978 2.034-1.504 2.136c-0.844 0-1.692-0.792-2.54-2.376 0.318 0.844-0.262 1.636-1.742 2.376s-2.75 1.162-3.806 1.266c2.012 1.27 1.588 2.698-1.266 4.284-0.74 0.422-1.824 0.686-3.25 0.794s-2.456-0.106-3.086-0.636c-0.532-0.74-0.824-1.346-0.876-1.822s0.212-0.896 0.794-1.266c0.582-0.37 1.136-0.66 1.666-0.87s1.138-0.422 1.824-0.634c0.688-0.212 1.136-0.372 1.344-0.48 1.48-1.058 1.904-1.798 1.274-2.22-0.214-0.104-0.666-0.288-1.354-0.552s-1.296-0.502-1.824-0.716c-0.528-0.214-0.846-0.424-0.95-0.634-0.318-0.422-0.318-1.162 0-2.22s0.214-1.798-0.312-2.22c-0.532 0.526-1.010 1.448-1.43 2.77s-0.792 2.196-1.11 2.624c0.74-0.954-0.582-1.272-3.962-0.954l-1.586 0.156c-0.422 0-1.266-0.106-2.536-0.316s-2.354-0.264-3.25-0.156c-0.9 0.106-1.61 0.53-2.138 1.27-0.422 0.844-0.422 1.9 0 3.164 0.104 0.422 0.314 0.528 0.632 0.322-0.422 0.318-1.002 0.818-1.742 1.504s-1.27 1.134-1.586 1.348c-4.86-1.584-9.83-3.752-14.904-6.504 0.636-0.104 1.27-0.048 1.9 0.164 0.532 0.208 1.22 0.55 2.064 1.028s1.372 0.768 1.586 0.87c3.596 1.48 5.814 1.85 6.658 1.11l0.788 0.788c1.48-1.688 2.536-3.010 3.174-3.962-0.74 0.422-2.324 0.476-4.75 0.164-2.116-0.636-3.28-1.272-3.494-1.908 0.74-1.266 1.006-2.216 0.798-2.852-0.422 0.318-1.030 0.846-1.824 1.586s-1.562 1.322-2.302 1.744c-0.74 0.422-1.532 0.684-2.376 0.788-1.694 0-2.856-0.052-3.486-0.156-15.432-8.456-27.852-20.188-37.256-35.192 0.74-0.74 1.372-1.164 1.9-1.274 0.422-0.104 0.686-0.578 0.794-1.422s0.24-1.424 0.4-1.744c0.158-0.318 0.764-0.158 1.816 0.476 0.954-0.85 1.112-1.856 0.476-3.018 0.11 0.104 2.436-1.324 6.98-4.284 2.006-1.792 3.116-2.902 3.33-3.328 0.318-1.162-0.212-2.114-1.586-2.852-0.104 0.214-0.58 0.692-1.426 1.432s-1.322 0.952-1.426 0.634c-0.318-0.526-0.292-1.504 0.078-2.932s0.926-2.090 1.666-1.986c-0.74 0-1.24-0.846-1.504-2.536s-0.394-3.568-0.394-5.626c0-2.062-0.056-3.302-0.166-3.724l0.322-0.164c-0.318-1.266-0.028-3.088 0.87-5.466s2.036-3.408 3.412-3.092c-1.376-0.318-0.322-2.59 3.166-6.816 0.636-0.85 1.060-1.326 1.274-1.432 0.312-0.208 0.944-0.604 1.9-1.188s1.748-1.114 2.38-1.586c0.632-0.474 1.16-1.028 1.582-1.664 0.422-0.526 0.952-1.714 1.586-3.562s1.376-3.092 2.22-3.728c-0.214-0.636 0.286-1.694 1.504-3.174s1.774-2.694 1.668-3.642c-0.11 0-0.242-0.052-0.4-0.16s-0.288-0.16-0.4-0.16c0.318-0.74 1.138-1.48 2.458-2.22s2.14-1.428 2.458-2.064c0.104-0.312 0.21-0.838 0.316-1.578s0.266-1.322 0.476-1.746c0.212-0.424 0.634-0.53 1.27-0.316 0.208 2.116-1.060 5.394-3.806 9.832-1.584 2.64-2.484 4.174-2.696 4.596-0.318 0.526-0.608 1.344-0.87 2.454s-0.502 1.876-0.714 2.298c0.214 0 0.532-0.078 0.954-0.234s0.87-0.342 1.348-0.554c0.476-0.214 0.872-0.426 1.188-0.636s0.42-0.37 0.316-0.472c-0.318-0.74-0.214-1.664 0.316-2.774s1.164-2.088 1.904-2.934c0.74-0.846 1.64-1.85 2.696-3.014s1.69-1.846 1.9-2.054c0.636-0.636 1.378-1.668 2.224-3.096s0.846-2.142-0.004-2.142c0.954 0 2.012-0.528 3.174-1.586s2.060-2.114 2.696-3.164c0.526-0.85 0.948-2.226 1.266-4.126s0.584-3.172 0.798-3.806c0.208-0.74 0.656-1.452 1.344-2.136s1.348-1.186 1.98-1.504c0.632-0.318 1.478-0.74 2.536-1.27s1.746-0.9 2.064-1.114c0.526-0.208 1.502-0.762 2.93-1.66s2.562-1.506 3.406-1.826c1.058-0.422 1.904-0.634 2.54-0.634s1.404 0.13 2.302 0.394c0.9 0.264 1.61 0.448 2.138 0.558 1.584 0.208 3.116-0.586 4.596-2.38s2.588-2.906 3.33-3.334c3.81-2.006 6.716-2.586 8.722-1.744-0.214-0.104-0.188-0.5 0.078-1.188s0.688-1.506 1.27-2.458c0.582-0.952 1.056-1.716 1.426-2.298s0.662-1.030 0.876-1.348c0.526-0.636 1.476-1.428 2.848-2.38s2.326-1.74 2.856-2.37c0.636 0.422 1.006 0.896 1.11 1.422-0.318-0.844 0.052-1.9 1.11-3.168s2.008-1.796 2.852-1.582c1.48 0.312 2.22 2.004 2.22 5.072-3.278-1.59-5.866-0.64-7.77 2.852 0 0.104-0.132 0.394-0.394 0.87s-0.474 0.926-0.634 1.348c-0.158 0.422-0.292 0.87-0.4 1.348s-0.106 0.874 0 1.188c0.106 0.316 0.37 0.472 0.794 0.472 0.948 0 1.476 0.184 1.582 0.554s0 1.030-0.316 1.98c-0.318 0.952-0.528 1.64-0.634 2.068-0.104 0.844-0.684 1.9-1.744 3.168s-1.694 2.062-1.908 2.38c-0.526-0.954-1.37-1.376-2.532-1.27s-2.010 0.582-2.54 1.426c0-0.104-0.080-0.394-0.238-0.87s-0.24-0.822-0.238-1.036c-1.37 0-2.162 0.054-2.376 0.164 0.104 0.318 0.236 1.244 0.394 2.774s0.346 2.72 0.558 3.562c0.104 0.422 0.394 1.056 0.87 1.904s0.874 1.614 1.188 2.302c0.316 0.688 0.526 1.348 0.634 1.98s-0.13 1.134-0.712 1.504c-0.582 0.37-1.506 0.504-2.778 0.4-2.006-0.11-3.38-1.168-4.118-3.174-0.104-0.318-0.262-0.874-0.474-1.664s-0.476-1.4-0.794-1.822c-0.318-0.422-0.796-0.792-1.43-1.11-0.74-0.318-2.010-0.424-3.806-0.322s-3.068 0.37-3.806 0.798c-1.37 0.844-2.558 2.376-3.562 4.596s-1.51 4.174-1.51 5.86c0 1.058 0.132 2.458 0.4 4.206s0.426 3.068 0.476 3.966c0.052 0.9-0.24 2.192-0.876 3.88 0.318 0.214 0.796 0.716 1.43 1.51s1.166 1.346 1.586 1.664c0.208 0.104 0.444 0.182 0.712 0.234s0.504 0.052 0.714 0c0.212-0.052 0.422 0.028 0.632 0.238s0.368 0.528 0.474 0.948c-0.104 0.11-0.314 0.27-0.632 0.476-0.318 0.318-0.528 0.476-0.632 0.476 0.74-0.318 2.246-0.24 4.516 0.238s3.726 0.398 4.36-0.238c1.584-1.162 2.746-1.054 3.486 0.322 0 0.104-0.132 0.606-0.394 1.504s-0.29 1.61-0.082 2.136c0.532-2.85 2.066-3.324 4.604-1.422 0.318-0.318 1.136-0.582 2.458-0.794s2.244-0.476 2.77-0.794c0.318-0.214 0.688-0.506 1.11-0.876s0.712-0.606 0.87-0.712c0.158-0.104 0.424-0.076 0.794 0.082s0.822 0.5 1.352 1.028c1.052-1.48 1.684-2.75 1.9-3.806 1.162-4.226 2.164-6.548 3.010-6.972 0.74-0.318 1.322-0.424 1.746-0.322s0.664 0.606 0.716 1.504c0.052 0.9 0.052 1.64 0 2.22s-0.134 1.24-0.244 1.98l-0.156 1.274c0 0.948 0 1.9 0 2.852l-0.156 1.266c-1.584 0.318-2.562 0.952-2.932 1.904s-0.292 1.928 0.234 2.932c0.526 1.004 1.318 1.98 2.376 2.934 0.11 0.104 0.534 0.288 1.274 0.554s1.558 0.61 2.454 1.032c0.896 0.422 1.558 0.844 1.986 1.266 2.22 2.010 3.010 3.86 2.376 5.548 0.74 0 1.322 0.476 1.744 1.432-0.104 0-0.37 0.158-0.794 0.472s-0.822 0.578-1.192 0.794c-0.37 0.214-0.606 0.322-0.712 0.322 0.954 0.526 1.062 1.37 0.322 2.532 0.526 0.318 0.922 0.9 1.188 1.746s0.662 1.374 1.188 1.582c0.954-1.266 2.062-1.37 3.328-0.312 0.74 0.844 0.792 1.688 0.156 2.532 0.532 0.74 1.616 1.294 3.256 1.664s2.614 0.874 2.926 1.51c0.74-0.214 1.164-0.11 1.27 0.316s0.16 1.058 0.16 1.904c0 0.844 0.158 1.476 0.476 1.9 0.422 0.532 1.214 1.010 2.376 1.432s1.85 0.684 2.064 0.788l2.696 1.744c0.318 0.428 0.318 0.64 0 0.642 1.902-0.214 3.54 0.366 4.916 1.744 1.052 1.162 0.734 2.216-0.954 3.164 0.318 0.636 0.158 1.14-0.476 1.51s-1.428 0.662-2.376 0.876c0.318 0.104 0.924 0.13 1.822 0.078s1.452 0.026 1.664 0.234c1.584 1.058 1.214 1.904-1.11 2.54-1.798 0.526-4.068-0.11-6.816-1.908zM531.472 216.696c21.774 3.802 40.322 13.792 55.646 29.966-0.312 0.318-0.972 0.556-1.976 0.716s-1.668 0.342-1.986 0.552c-1.902 0.74-3.172 1.162-3.806 1.266 0.11 0.74-0.020 1.428-0.39 2.064s-0.794 1.114-1.27 1.432c-0.476 0.318-1.136 0.74-1.98 1.266s-1.424 0.896-1.744 1.11c-0.214 0.214-0.586 0.532-1.114 0.954s-0.9 0.712-1.11 0.87c-0.212 0.158-0.606 0.396-1.188 0.712s-1.030 0.42-1.348 0.316c-0.318-0.104-0.846-0.156-1.586-0.156l-0.476-0.156c-0.312-0.11-0.6-0.244-0.866-0.404s-0.558-0.318-0.876-0.472c-0.318-0.156-0.528-0.314-0.634-0.472s-0.104-0.294 0-0.404c-2.22 1.798-4.12 2.962-5.706 3.494-0.532 0.104-1.114 0.394-1.746 0.87s-1.188 0.846-1.664 1.11c-0.476 0.264-1.006 0.342-1.586 0.234s-1.188-0.476-1.816-1.106c-0.532-0.532-0.85-1.326-0.954-2.38s-0.212-1.74-0.322-2.058c-0.74 0.526-0.74 1.448 0 2.77s0.846 2.298 0.322 2.934c-0.318 0.636-0.874 0.874-1.664 0.716s-1.426-0.398-1.904-0.716c-0.476-0.318-1.086-0.768-1.826-1.348s-1.216-0.924-1.426-1.032c-0.212-0.106-0.66-0.398-1.348-0.87s-1.136-0.87-1.344-1.188c-0.318-0.422-0.636-1.056-0.954-1.904s-0.582-1.428-0.788-1.746c-0.214 0.428-0.822 0.774-1.826 1.036s-1.504 0.552-1.504 0.87c0.208-1.058 0.418-2.908 0.63-5.548s0.476-4.65 0.794-6.026c0.74-3.278 0.106-5.816-1.9-7.614-2.856-2.642-4.39-4.754-4.604-6.338-0.422-2.324 0.214-3.698 1.908-4.126 0-0.74-0.424-1.822-1.27-3.246s-1.216-2.562-1.106-3.412c0-0.63 0.104-1.474 0.312-2.532z" />
<glyph unicode="&#xe60f;" glyph-name="uniE60F" d="M177.706 908.774c-69.766 0-126.506-56.686-126.506-126.45v-668.644c0-69.764 56.74-126.506 126.506-126.506h668.588c69.764 0 126.506 56.74 126.506 126.506v668.644c0 69.764-56.74 126.45-126.506 126.45h-668.588zM177.706 872.662h668.588c50.368 0 90.336-39.97 90.336-90.338v-668.644c0-50.368-39.97-90.336-90.336-90.336h-668.588c-50.368 0-90.338 39.97-90.338 90.336v668.644c0 50.368 39.968 90.338 90.338 90.338zM188 359.646v176.73h235.646v235.626h176.73v-235.626h235.626v-176.73h-235.626v-235.646h-176.73v235.646z" />
<glyph unicode="&#xe610;" glyph-name="uniE610" d="M903.432 760.57l-142.864 142.862c-31.112 31.112-92.568 56.568-136.568 56.568h-480c-44 0-80-36-80-80v-864c0-44 36-80 80-80h736c44 0 80 36 80 80v608c0 44-25.456 105.458-56.568 136.57zM858.178 715.314c3.13-3.13 6.25-6.974 9.28-11.314h-163.458v163.456c4.34-3.030 8.184-6.15 11.314-9.28l142.864-142.862zM896 16c0-8.672-7.328-16-16-16h-736c-8.672 0-16 7.328-16 16v864c0 8.672 7.328 16 16 16h480c4.832 0 10.254-0.61 16-1.704v-254.296h254.296c1.094-5.746 1.704-11.166 1.704-16v-608zM355.048 451.074l-87.454 16.942c9.832 37.814 26.75 65.808 50.758 83.978s59.674 27.256 107.002 27.256c42.984 0 74.992-5.464 96.028-16.39s35.84-24.802 44.414-41.62c8.574-16.82 12.86-47.698 12.86-92.634l-1.028-120.81c0-34.376 1.544-59.73 4.63-76.058s8.86-33.824 17.318-52.486h-95.342c-2.514 6.876-5.602 17.066-9.26 30.572-1.6 6.14-2.744 10.19-3.43 12.154-16.462-17.188-34.068-30.080-52.814-38.674s-38.754-12.89-60.016-12.89c-37.498 0-67.048 10.928-88.654 32.78s-32.408 49.478-32.408 82.874c0 22.1 4.916 41.804 14.748 59.116s23.606 30.572 41.326 39.778c17.718 9.208 43.27 17.25 76.652 24.126 45.040 9.086 76.25 17.556 93.628 25.414v10.312c0 19.89-4.572 34.070-13.718 42.54s-26.408 12.706-51.786 12.706c-17.148 0-30.524-3.622-40.126-10.866s-17.378-19.952-23.322-38.12zM484 367.096c-12.346-4.42-31.894-9.698-58.644-15.838s-44.24-12.154-52.472-18.048c-12.574-9.576-18.862-21.73-18.862-36.464 0-14.486 5.030-27.010 15.090-37.568s22.864-15.838 38.412-15.838c17.376 0 33.952 6.14 49.728 18.416 11.66 9.332 19.32 20.75 22.978 34.254 2.514 8.84 3.772 25.66 3.774 50.46zM671.598 282.75h96.37v-74.034c0-29.956-2.4-53.592-7.202-70.902s-13.89-32.842-27.264-46.592c-13.376-13.75-30.352-24.554-50.928-32.412l-18.862 42.726c19.434 6.876 33.268 16.328 41.498 28.36s12.576 28.484 13.032 49.356h-46.642z" />
<glyph unicode="&#xe611;" glyph-name="uniE611" d="M992.262 88.604l-242.552 206.294c-25.074 22.566-51.89 32.926-73.552 31.926 57.256 67.068 91.842 154.078 91.842 249.176 0 212.078-171.922 384-384 384s-384-171.922-384-384c0-212.078 171.922-384 384-384 95.098 0 182.108 34.586 249.176 91.844-1-21.662 9.36-48.478 31.926-73.552l206.294-242.552c35.322-39.246 93.022-42.554 128.22-7.356s31.892 92.898-7.354 128.22zM384 320c-141.384 0-256 114.616-256 256s114.616 256 256 256 256-114.616 256-256-114.614-256-256-256z" />
<glyph unicode="&#xe612;" glyph-name="uniE612" d="M395.976 332.010c53.96-53.958 118.89-80.938 194.792-80.938s140.826 26.976 194.774 80.922c53.948 53.948 80.922 118.872 80.922 194.774s-26.976 140.826-80.922 194.774c-53.948 53.948-118.874 80.922-194.774 80.922s-140.826-26.974-194.774-80.922c-53.948-53.948-80.922-118.872-80.922-194.774s26.968-140.82 80.904-194.758zM78.752-64c-21.314 0-39.768 7.792-55.36 23.374s-23.39 34.042-23.39 55.378c0 22.168 7.796 40.634 23.39 55.394l210.44 211.080c-50.862 73.434-76.294 155.282-76.294 245.542 0 58.67 11.386 114.774 34.158 168.304s53.544 99.684 92.314 138.454c38.77 38.77 84.92 69.542 138.454 92.314s109.634 34.158 168.306 34.158c58.67 0 114.778-11.386 168.322-34.158s99.7-53.544 138.472-92.314c38.77-38.77 69.534-84.92 92.298-138.454s34.14-109.634 34.142-168.304c0-58.67-11.382-114.778-34.142-168.322s-53.528-99.7-92.298-138.472c-38.77-38.77-84.928-69.534-138.472-92.298s-109.652-34.14-168.322-34.142c-90.26 0-172.108 25.432-245.542 76.294l-211.080-211.080c-15.168-15.166-33.632-22.75-55.396-22.75z" />
<glyph unicode="&#xe613;" glyph-name="uniE613" d="M480 896c-265.096 0-480-214.904-480-480s214.904-480 480-480c265.098 0 480 214.902 480 480s-214.902 480-480 480zM751.59 256c8.58 40.454 13.996 83.392 15.758 128h127.446c-3.336-44.196-13.624-87.114-30.68-128h-112.524zM208.41 576c-8.58-40.454-13.996-83.392-15.758-128h-127.444c3.336 44.194 13.622 87.114 30.678 128h112.524zM686.036 576c9.614-40.962 15.398-83.854 17.28-128h-191.316v128h174.036zM512 640v187.338c14.59-4.246 29.044-11.37 43.228-21.37 26.582-18.74 52.012-47.608 73.54-83.486 14.882-24.802 27.752-52.416 38.496-82.484h-155.264zM331.232 722.484c21.528 35.878 46.956 64.748 73.54 83.486 14.182 10 28.638 17.124 43.228 21.37v-187.34h-155.264c10.746 30.066 23.616 57.68 38.496 82.484zM448 576v-128h-191.314c1.88 44.146 7.666 87.038 17.278 128h174.036zM95.888 256c-17.056 40.886-27.342 83.804-30.678 128h127.444c1.762-44.608 7.178-87.546 15.758-128h-112.524zM256.686 384h191.314v-128h-174.036c-9.612 40.96-15.398 83.854-17.278 128zM448 192v-187.34c-14.588 4.246-29.044 11.372-43.228 21.37-26.584 18.74-52.014 47.61-73.54 83.486-14.882 24.804-27.75 52.418-38.498 82.484h155.266zM628.768 109.516c-21.528-35.876-46.958-64.746-73.54-83.486-14.184-9.998-28.638-17.124-43.228-21.37v187.34h155.266c-10.746-30.066-23.616-57.68-38.498-82.484zM512 256v128h191.314c-1.88-44.146-7.666-87.040-17.28-128h-174.034zM767.348 448c-1.762 44.608-7.178 87.546-15.758 128h112.524c17.056-40.886 27.344-83.806 30.68-128h-127.446zM830.658 640h-95.9c-18.638 58.762-44.376 110.294-75.316 151.428 42.536-20.34 81.058-47.616 114.714-81.272 21.48-21.478 40.362-44.938 56.502-70.156zM185.844 710.156c33.658 33.658 72.18 60.932 114.714 81.272-30.942-41.134-56.676-92.666-75.316-151.428h-95.898c16.138 25.218 35.022 48.678 56.5 70.156zM129.344 192h95.898c18.64-58.762 44.376-110.294 75.318-151.43-42.536 20.34-81.058 47.616-114.714 81.274-21.48 21.478-40.364 44.938-56.502 70.156zM774.156 121.844c-33.656-33.658-72.18-60.934-114.714-81.274 30.942 41.134 56.678 92.668 75.316 151.43h95.9c-16.14-25.218-35.022-48.678-56.502-70.156z" />
<glyph unicode="&#xe614;" glyph-name="uniE614" d="M238.25 886c-45.246 0-83.938-16.064-116.064-48.188s-48.188-70.82-48.188-116.062v-547.5c0-45.246 16.064-83.928 48.188-116.062s70.818-48.188 116.064-48.188h547.5c45.244 0 83.938 16.052 116.062 48.188s48.188 70.818 48.188 116.062v547.5c0 45.244-16.064 83.938-48.188 116.062s-70.818 48.188-116.062 48.188h-547.5zM558.126 748c34.376 0 67.25-6.658 98.626-20s58.47-31.408 81.188-54.126c22.716-22.716 40.726-49.758 54.062-81.126s20-64.248 20-98.626c0-34.378-6.664-67.25-20-98.626s-31.346-58.408-54.062-81.126c-22.716-22.716-49.814-40.726-81.188-54.062s-64.248-20-98.626-20c-52.888 0-100.848 14.886-143.876 44.688l-123.626-123.688c-8.888-8.886-19.748-13.312-32.5-13.312-12.49 0-23.3 4.558-32.438 13.688s-13.688 19.936-13.688 32.438c0 12.99 4.55 23.85 13.688 32.5l123.312 123.626c-29.802 43.028-44.688 90.988-44.688 143.876 0 34.378 6.656 67.258 20 98.626s31.408 58.408 54.126 81.126c22.716 22.716 49.758 40.782 81.126 54.126s64.186 20 98.562 20zM558.126 655.688c-44.474 0-82.514-15.826-114.126-47.438s-47.376-69.652-47.376-114.126c0-44.474 15.772-82.46 47.376-114.062 31.616-31.616 69.65-47.438 114.126-47.438s82.514 15.764 114.126 47.376c31.61 31.61 47.438 69.652 47.438 114.126s-15.828 82.514-47.438 114.126c-31.61 31.61-69.652 47.438-114.126 47.438z" />
<glyph unicode="&#xe615;" glyph-name="uniE615" d="M737.23 80.998c13.722-13.876 13.722-36.25 0-50.126s-35.89-13.876-49.614 0l-400.896 404.838c-13.722 13.876-13.722 36.302 0 50.126l400.896 404.89c13.722 13.876 35.89 13.876 49.614 0s13.722-36.25 0-50.126l-365.568-379.802 365.568-379.802z" />
<glyph unicode="&#xe616;" glyph-name="uniE616" d="M132.198 686.028c-13.876 13.722-36.302 13.722-50.126 0-13.824-13.67-13.824-35.892 0-49.614l404.89-400.896c13.876-13.722 36.25-13.722 50.126 0l404.89 400.896c13.824 13.722 13.876 35.89 0 49.612s-36.352 13.722-50.126 0.052l-379.854-365.62-379.802 365.568z" />
<glyph unicode="&#xe617;" glyph-name="uniE617" d="M891.802 235.57c13.876-13.722 36.302-13.722 50.126 0 13.876 13.722 13.876 35.89 0 49.614l-404.89 400.896c-13.824 13.722-36.25 13.722-50.074 0l-404.89-400.896c-13.824-13.722-13.876-35.89 0-49.614s36.25-13.722 50.126 0l379.802 365.62 379.802-365.62z" />
<glyph unicode="&#xe618;" glyph-name="uniE618" d="M286.704 80.998c-13.722-13.876-13.722-36.25 0-50.126s35.892-13.876 49.612 0l400.896 404.838c13.722 13.876 13.722 36.302 0 50.126l-400.896 404.89c-13.722 13.876-35.892 13.876-49.612 0s-13.722-36.25 0-50.126l365.568-379.802-365.568-379.802z" />
<glyph unicode="&#xe619;" glyph-name="uniE619" d="M0 16h1024v-80h-1024zM112 446.922v218.184h290.92v290.894h218.184v-290.894h290.894v-218.184h-290.894v-290.922h-218.184v290.922z" />
<glyph unicode="&#xe61a;" glyph-name="uniE61A" d="M0 16h1024v-80h-1024zM874.684 689.054c10.36 0 19.176-3.63 26.432-10.884s10.884-16.072 10.884-26.432v-522.422c0-10.374-3.628-19.176-10.884-26.432s-16.072-10.884-26.432-10.884h-422.914c-10.372 0-19.176 3.628-26.432 10.884s-10.882 16.058-10.884 26.432v310.966h211.456c10.36 0 19.178 3.628 26.432 10.884s10.884 16.058 10.884 26.432v211.456h211.456zM613.472 687.826v-197.79h-197.872c3.882 21.242 12.32 38.342 25.286 51.31l121.278 121.278c12.952 12.952 30.052 21.32 51.308 25.204zM311.018 892.164c-21.258-3.884-38.356-12.334-51.31-25.286l-121.276-121.278c-12.966-12.966-21.402-30.068-25.286-51.308h197.872v197.872zM360.774 893.308v-211.456c0-10.374-3.628-19.178-10.884-26.432s-16.072-10.884-26.432-10.884h-211.456v-310.966c0-10.374 3.63-19.176 10.884-26.432s16.060-10.884 26.432-10.884h205.4v150.818c-0.002 9.062-1.568 49.972 2.864 57.878-5.126 10.198-2.918-9.782-0.9 1.452 5.428 29.682 18.674 58.034 40.016 79.378l121.278 121.276c21.404 21.404 49.79 34.528 79.378 39.936 4.020 0.686 8.122 0.904 12.192 0.654v108.346c0 10.36-3.628 19.176-10.884 26.432s-16.072 10.884-26.432 10.884z" />
<glyph unicode="&#xe61b;" glyph-name="uniE61B" d="M804.004 411.524v72.982c0 9.896-3.614 18.452-10.838 25.668s-15.788 10.822-25.684 10.822h-182.486v182.516c0 9.876-3.614 18.428-10.838 25.654s-15.778 10.836-25.654 10.838h-73.014c-9.878 0-18.428-3.612-25.654-10.838s-10.838-15.776-10.838-25.654v-182.516h-182.516c-9.878 0-18.428-3.608-25.652-10.822s-10.838-15.772-10.838-25.668v-72.982c0-9.898 3.612-18.458 10.838-25.684s15.776-10.838 25.652-10.838h182.516v-182.486c0-9.898 3.612-18.452 10.838-25.668s15.776-10.822 25.654-10.822h73.014c9.876 0 18.428 3.606 25.654 10.822s10.838 15.77 10.838 25.668v182.486h182.486c9.898 0 18.458 3.612 25.684 10.838s10.836 15.786 10.838 25.684zM950 721.76v-547.488c0-45.246-16.062-83.934-48.188-116.068s-70.81-48.202-116.054-48.202h-547.52c-45.246 0-83.93 16.068-116.054 48.202s-48.186 70.826-48.186 116.068v547.488c0 45.244 16.062 83.928 48.186 116.054s70.808 48.186 116.054 48.188h547.52c45.244 0 83.928-16.062 116.054-48.188s48.186-70.81 48.188-116.054z" />
<glyph unicode="&#xe61c;" glyph-name="uniE61C" d="M343.27 178.758l38.924 38.924-100.51 100.51-38.924-38.924v-45.754h54.736v-54.758zM566.956 575.68c0 6.268-3.134 9.404-9.404 9.404-2.854 0-5.278-0.998-7.274-2.994l-231.828-231.804c-1.996-1.996-2.994-4.422-2.994-7.274 0-6.284 3.134-9.428 9.404-9.428 2.854 0 5.278 0.998 7.274 2.994l231.828 231.828c1.996 1.996 2.994 4.422 2.994 7.274zM543.87 657.806l177.936-177.936-355.87-355.87h-177.936v177.934zM836 616.754c0-15.128-5.278-27.96-15.836-38.502l-70.992-71.014-177.934 177.936 70.992 70.572c10.276 10.836 23.11 16.256 38.502 16.256 15.11 0 28.084-5.42 38.924-16.256l100.51-100.068c10.556-11.134 15.836-24.11 15.836-38.924zM177.706 908.774c-69.766 0-126.506-56.686-126.506-126.45v-668.644c0-69.764 56.74-126.506 126.506-126.506h668.588c69.764 0 126.506 56.74 126.506 126.506v668.644c0 69.764-56.74 126.45-126.506 126.45h-668.588zM177.706 872.662h668.588c50.368 0 90.336-39.97 90.336-90.338v-668.644c0-50.368-39.97-90.336-90.336-90.336h-668.588c-50.368 0-90.338 39.97-90.338 90.336v668.644c0 50.368 39.968 90.338 90.338 90.338z" />
<glyph unicode="&#xf003;" glyph-name="uniF003" d="M950.856 91.428v438.856q-18.286-20.572-39.428-37.714-153.144-117.714-243.428-193.144-29.144-24.572-47.428-38.286t-49.428-27.714-58.572-14h-1.142q-27.428 0-58.57 14t-49.428 27.714-47.428 38.286q-90.286 75.428-243.43 193.144-21.144 17.144-39.43 37.714v-438.856q0-7.428 5.43-12.856t12.856-5.428h841.144q7.428 0 12.856 5.428t5.428 12.856zM950.856 692v14t-0.286 7.428-1.714 7.144-3.144 5.144-5.144 4.286-8 1.428h-841.144q-7.43 0-12.856-5.428t-5.43-12.858q0-96 84-162.286 110.286-86.856 229.142-181.144 3.428-2.856 20-16.856t26.286-21.428 25.428-18 28.858-15.714 24.572-5.144h1.144q11.428 0 24.572 5.144t28.856 15.714 25.428 18 26.286 21.428 20 16.856q118.856 94.286 229.144 181.144 30.856 24.572 57.428 66t26.572 75.144zM1024 713.144v-621.714q0-37.714-26.856-64.572t-64.572-26.856h-841.144q-37.714 0-64.57 26.856t-26.856 64.572v621.714q0 37.714 26.856 64.572t64.57 26.856h841.144q37.714 0 64.572-26.856t26.856-64.572z" />
<glyph unicode="&#xf007;" glyph-name="uniF007" horiz-adv-x="806" d="M804.572 148q0-68.572-41.714-108.286t-110.856-39.714h-499.428q-69.144 0-110.856 39.714t-41.714 108.286q0 30.286 2 59.144t8 62.286 15.144 62 24.57 55.714 35.43 46.286 48.856 30.572 63.714 11.428q5.144 0 24-12.286t42.57-27.428 61.714-27.428 76.286-12.286 76.286 12.286 61.714 27.428 42.572 27.428 24 12.286q34.856 0 63.714-11.428t48.856-30.57 35.428-46.286 24.572-55.714 15.144-62 8-62.286 2-59.144zM621.714 658.286q0-90.856-64.286-155.144t-155.144-64.286-155.144 64.286-64.286 155.144 64.286 155.142 155.144 64.286 155.144-64.286 64.286-155.142z" />
<glyph unicode="&#xf02f;" glyph-name="uniF02F" horiz-adv-x="952" d="M219.43 73.144h512v146.286h-512v-146.286zM219.43 438.858h512v219.428h-91.428q-22.856 0-38.856 16t-16 38.856v91.428h-365.714v-365.714zM877.714 402.286q0 14.856-10.856 25.714t-25.714 10.856-25.714-10.856-10.856-25.714 10.856-25.714 25.714-10.856 25.714 10.856 10.856 25.714zM950.856 402.286v-237.714q0-7.428-5.428-12.856t-12.856-5.428h-128v-91.428q0-22.856-16-38.856t-38.856-16h-548.572q-22.856 0-38.856 16t-16 38.856v91.428h-128q-7.43 0-12.856 5.428t-5.43 12.856v237.714q0 45.144 32.286 77.428t77.43 32.286h36.57v310.858q0 22.856 16 38.856t38.856 16h384q22.856 0 50.286-11.428t43.428-27.43l86.856-86.856q16-16 27.428-43.428t11.428-50.286v-146.286h36.572q45.144 0 77.428-32.286t32.286-77.428z" />
<glyph unicode="&#xf040;" glyph-name="uniF040" d="M207.43 73.144l52 52-134.286 134.286-52-52v-61.144h73.144v-73.144h61.144zM506.286 603.428q0 12.572-12.572 12.572-5.714 0-9.714-4l-309.714-309.714q-4-4-4-9.714 0-12.572 12.57-12.572 5.714 0 9.714 4l309.714 309.714q4 4 4 9.714zM475.428 713.144l237.714-237.714-475.428-475.428h-237.714v237.714zM865.714 658.286q0-30.286-21.144-51.428l-94.856-94.856-237.714 237.714 94.856 94.286q20.572 21.714 51.428 21.714 30.286 0 52-21.714l134.286-133.714q21.144-22.286 21.144-52z" />
<glyph unicode="&#xf045;" glyph-name="uniF045" horiz-adv-x="952" d="M804.572 385.714v-148q0-68-48.286-116.286t-116.286-48.286h-475.428q-68 0-116.286 48.286t-48.286 116.286v475.428q0 68 48.286 116.286t116.286 48.286h145.714q7.428 0 12.858-5.43t5.428-12.856q0-15.428-14.856-18.286-44-14.858-76-34.286-5.714-2.286-9.144-2.286h-64q-37.714 0-64.57-26.856t-26.856-64.572v-475.428q0-37.714 26.856-64.572t64.57-26.856h475.428q37.714 0 64.572 26.856t26.856 64.572v122.286q0 10.856 10.286 16.572 16 7.428 30.856 21.144 9.144 9.144 20 4.572 12-5.144 12-16.572zM940 669.144l-219.428-219.428q-10.286-10.856-25.714-10.856-6.856 0-14.286 2.856-22.286 9.714-22.286 33.714v109.714h-91.428q-184.572 0-250.286-74.856-68-78.286-42.286-270.286 1.714-13.144-11.428-19.428-4.572-1.144-6.856-1.144-9.144 0-14.856 7.428-5.714 8-12 17.714t-22.57 39.144-28.286 56.856-22 65.144-10 69.714q0 28 2 52t8 51.43 16 50.286 26.856 46.572 39.144 42.286 54 35.144 71.144 27.714 91.144 17.428 112.286 6.286h91.428v109.714q0 24 22.286 33.714 7.428 2.858 14.286 2.858 14.856 0 25.714-10.858l219.428-219.428q10.856-10.856 10.856-25.714t-10.856-25.714z" />
<glyph unicode="&#xf046;" glyph-name="uniF046" horiz-adv-x="952" d="M804.572 419.428v-181.714q0-68-48.286-116.286t-116.286-48.286h-475.428q-68 0-116.286 48.286t-48.286 116.286v475.428q0 68 48.286 116.286t116.286 48.286h475.428q36 0 66.856-14.286 8.572-4 10.286-13.144 1.714-9.714-5.144-16.57l-28-28q-5.714-5.714-13.144-5.714-1.714 0-5.144 1.144-13.144 3.428-25.714 3.428h-475.428q-37.714 0-64.57-26.856t-26.856-64.572v-475.428q0-37.714 26.856-64.572t64.57-26.856h475.428q37.714 0 64.572 26.856t26.856 64.572v145.144q0 7.428 5.144 12.572l36.572 36.572q5.714 5.714 13.144 5.714 3.428 0 6.856-1.714 11.428-4.572 11.428-16.572zM936.572 698.858l-465.142-465.144q-13.714-13.714-32.57-13.714t-32.572 13.714l-245.714 245.714q-13.714 13.714-13.714 32.572t13.714 32.572l62.856 62.856q13.714 13.714 32.57 13.714t32.57-13.714l150.286-150.286 369.714 369.714q13.714 13.714 32.572 13.714t32.572-13.714l62.856-62.858q13.714-13.714 13.714-32.57t-13.714-32.572z" />
<glyph unicode="&#xf0b0;" glyph-name="uniF0B0" horiz-adv-x="806" d="M801.714 782.286q9.714-23.428-8-40l-281.714-281.714v-424q0-24-22.286-33.714-7.428-2.856-14.286-2.856-15.428 0-25.714 10.856l-146.286 146.286q-10.856 10.856-10.856 25.714v277.714l-281.714 281.714q-17.714 16.572-8 40 9.714 22.286 33.714 22.286h731.428q24 0 33.714-22.286z" />
<glyph unicode="&#xf0c5;" glyph-name="uniF0C5" d="M969.144 731.428q22.856 0 38.856-16t16-38.856v-694.856q0-22.856-16-38.856t-38.856-16h-548.572q-22.856 0-38.856 16t-16 38.856v164.572h-310.858q-22.856 0-38.856 16t-16 38.856v384q0 22.856 11.43 50.286t27.428 43.43l233.144 233.144q16 16 43.43 27.428t50.286 11.428h237.714q22.856 0 38.856-16t16-38.856v-187.43q38.856 22.858 73.144 22.858h237.714zM658.286 609.714l-170.856-170.856h170.856v170.856zM292.572 829.144l-170.856-170.856h170.856v170.856zM404.572 459.428l180.572 180.572v237.714h-219.428v-237.714q0-22.856-16-38.856t-38.856-16h-237.714v-365.714h292.572v146.286q0 22.856 11.428 50.286t27.428 43.428zM950.856 0v658.286h-219.428v-237.714q0-22.856-16-38.856t-38.856-16h-237.714v-365.714h512z" />
<glyph unicode="&#xf0c9;" glyph-name="uniF0C9" d="M877.714 182.858v-73.144q0-14.856-10.856-25.714t-25.714-10.856h-804.572q-14.856 0-25.714 10.856t-10.856 25.714v73.144q0 14.856 10.856 25.714t25.714 10.856h804.572q14.856 0 25.714-10.856t10.856-25.714zM877.714 475.428v-73.144q0-14.856-10.856-25.714t-25.714-10.856h-804.572q-14.856 0-25.714 10.856t-10.856 25.714v73.144q0 14.856 10.856 25.714t25.714 10.858h804.572q14.856 0 25.714-10.856t10.856-25.714zM877.714 768v-73.144q0-14.856-10.856-25.714t-25.714-10.856h-804.572q-14.856 0-25.714 10.856t-10.856 25.714v73.144q0 14.856 10.856 25.714t25.714 10.856h804.572q14.856 0 25.714-10.856t10.856-25.714z" />
<glyph unicode="&#xf0ce;" glyph-name="uniF0CE" horiz-adv-x="952" d="M292.572 164.572v109.714q0 8-5.142 13.144t-13.142 5.144h-182.856q-8 0-13.144-5.144t-5.144-13.144v-109.714q0-8 5.144-13.144t13.144-5.144h182.856q8 0 13.144 5.144t5.142 13.144zM292.572 384v109.714q0 8-5.142 13.144t-13.142 5.142h-182.856q-8 0-13.144-5.142t-5.144-13.144v-109.714q0-8 5.144-13.144t13.144-5.144h182.856q8 0 13.144 5.144t5.142 13.144zM585.144 164.572v109.714q0 8-5.144 13.144t-13.144 5.144h-182.856q-8 0-13.144-5.144t-5.142-13.144v-109.714q0-8 5.142-13.144t13.144-5.144h182.856q8 0 13.144 5.144t5.144 13.144zM292.572 603.428v109.714q0 8-5.142 13.144t-13.142 5.144h-182.856q-8 0-13.144-5.144t-5.144-13.144v-109.714q0-8 5.144-13.144t13.144-5.144h182.856q8 0 13.144 5.144t5.142 13.144zM585.144 384v109.714q0 8-5.144 13.144t-13.144 5.142h-182.856q-8 0-13.144-5.142t-5.142-13.144v-109.714q0-8 5.142-13.144t13.144-5.144h182.856q8 0 13.144 5.144t5.144 13.144zM877.714 164.572v109.714q0 8-5.144 13.144t-13.144 5.144h-182.856q-8 0-13.144-5.144t-5.144-13.144v-109.714q0-8 5.144-13.144t13.144-5.144h182.856q8 0 13.144 5.144t5.144 13.144zM585.144 603.428v109.714q0 8-5.144 13.144t-13.144 5.144h-182.856q-8 0-13.144-5.144t-5.142-13.144v-109.714q0-8 5.142-13.144t13.144-5.144h182.856q8 0 13.144 5.144t5.144 13.144zM877.714 384v109.714q0 8-5.144 13.144t-13.144 5.142h-182.856q-8 0-13.144-5.142t-5.144-13.144v-109.714q0-8 5.144-13.144t13.144-5.144h182.856q8 0 13.144 5.144t5.144 13.144zM877.714 603.428v109.714q0 8-5.144 13.144t-13.144 5.144h-182.856q-8 0-13.144-5.144t-5.144-13.144v-109.714q0-8 5.144-13.144t13.144-5.144h182.856q8 0 13.144 5.144t5.144 13.144zM950.856 786.286v-621.714q0-37.714-26.856-64.572t-64.572-26.856h-768q-37.714 0-64.57 26.856t-26.856 64.572v621.714q0 37.714 26.856 64.572t64.57 26.856h768q37.714 0 64.572-26.856t26.856-64.572z" />
<glyph unicode="&#xf100;" glyph-name="uniF100" horiz-adv-x="586" d="M358.286 164.572q0-7.428-5.714-13.144l-28.572-28.572q-5.714-5.714-13.144-5.714t-13.144 5.714l-266.286 266.286q-5.714 5.714-5.714 13.144t5.714 13.144l266.286 266.286q5.714 5.714 13.144 5.714t13.144-5.714l28.572-28.572q5.714-5.714 5.714-13.142t-5.714-13.144l-224.57-224.572 224.57-224.572q5.714-5.714 5.714-13.144zM577.714 164.572q0-7.428-5.714-13.144l-28.572-28.572q-5.714-5.714-13.144-5.714t-13.144 5.714l-266.286 266.286q-5.714 5.714-5.714 13.144t5.714 13.144l266.286 266.286q5.714 5.714 13.144 5.714t13.144-5.714l28.572-28.572q5.714-5.714 5.714-13.142t-5.714-13.144l-224.572-224.572 224.572-224.572q5.714-5.714 5.714-13.144z" />
<glyph unicode="&#xf101;" glyph-name="uniF101" horiz-adv-x="586" d="M340 402.286q0-7.428-5.714-13.144l-266.286-266.286q-5.714-5.714-13.144-5.714t-13.144 5.714l-28.572 28.572q-5.714 5.714-5.714 13.144t5.714 13.144l224.57 224.572-224.57 224.572q-5.714 5.714-5.714 13.144t5.714 13.144l28.57 28.572q5.714 5.714 13.144 5.714t13.144-5.714l266.286-266.286q5.714-5.714 5.714-13.144zM559.428 402.286q0-7.428-5.714-13.144l-266.286-266.286q-5.714-5.714-13.142-5.714t-13.144 5.714l-28.57 28.572q-5.714 5.714-5.714 13.144t5.714 13.144l224.57 224.572-224.57 224.572q-5.714 5.714-5.714 13.144t5.714 13.144l28.57 28.572q5.714 5.714 13.144 5.714t13.144-5.714l266.286-266.286q5.714-5.714 5.714-13.144z" />
<glyph unicode="&#xf104;" glyph-name="uniF104" horiz-adv-x="366" d="M358.286 640q0-7.428-5.714-13.142l-224.57-224.572 224.57-224.572q5.714-5.714 5.714-13.144t-5.714-13.144l-28.572-28.572q-5.714-5.714-13.144-5.714t-13.144 5.714l-266.286 266.286q-5.714 5.714-5.714 13.144t5.714 13.144l266.286 266.286q5.714 5.714 13.144 5.714t13.144-5.714l28.572-28.572q5.714-5.714 5.714-13.142z" />
<glyph unicode="&#xf105;" glyph-name="uniF105" horiz-adv-x="366" d="M340 402.286q0-7.428-5.714-13.144l-266.286-266.286q-5.714-5.714-13.144-5.714t-13.144 5.714l-28.572 28.572q-5.714 5.714-5.714 13.144t5.714 13.144l224.57 224.572-224.57 224.572q-5.714 5.714-5.714 13.144t5.714 13.144l28.57 28.572q5.714 5.714 13.144 5.714t13.144-5.714l266.286-266.286q5.714-5.714 5.714-13.144z" />
<glyph unicode="&#xf147;" glyph-name="uniF147" horiz-adv-x="806" d="M658.286 493.714v-36.57q0-8-5.144-13.144t-13.144-5.144h-475.428q-8 0-13.144 5.144t-5.144 13.144v36.572q0 8 5.144 13.144t13.144 5.142h475.428q8 0 13.144-5.142t5.144-13.144zM731.428 237.714v475.428q0 37.714-26.856 64.572t-64.572 26.856h-475.428q-37.714 0-64.57-26.856t-26.856-64.572v-475.428q0-37.714 26.856-64.572t64.57-26.856h475.428q37.714 0 64.572 26.856t26.856 64.572zM804.572 713.144v-475.428q0-68-48.286-116.286t-116.286-48.286h-475.428q-68 0-116.286 48.286t-48.286 116.286v475.428q0 68 48.286 116.286t116.286 48.286h475.428q68 0 116.286-48.286t48.286-116.286z" />
<glyph unicode="&#xf196;" glyph-name="uniF196" horiz-adv-x="806" d="M658.286 493.714v-36.57q0-8-5.144-13.144t-13.144-5.144h-201.144v-201.142q0-8-5.142-13.144t-13.142-5.144h-36.572q-8 0-13.144 5.144t-5.142 13.144v201.144h-201.144q-8 0-13.144 5.142t-5.144 13.144v36.572q0 8 5.144 13.144t13.144 5.142h201.144v201.144q0 8 5.142 13.144t13.144 5.144h36.572q8 0 13.144-5.144t5.142-13.144v-201.144h201.142q8 0 13.144-5.142t5.144-13.144zM731.428 237.714v475.428q0 37.714-26.856 64.572t-64.572 26.856h-475.428q-37.714 0-64.57-26.856t-26.856-64.572v-475.428q0-37.714 26.856-64.572t64.57-26.856h475.428q37.714 0 64.572 26.856t26.856 64.572zM804.572 713.144v-475.428q0-68-48.286-116.286t-116.286-48.286h-475.428q-68 0-116.286 48.286t-48.286 116.286v475.428q0 68 48.286 116.286t116.286 48.286h475.428q68 0 116.286-48.286t48.286-116.286z" />
</font>
</defs>
</svg>
